<svg xmlns="http://www.w3.org/2000/svg" x="0px" y="0px" width="100" height="100" viewBox="0,0,256,256"
style="fill:#FFFFFF;">
<g fill="#ffffff" fill-rule="nonzero" stroke="none" stroke-width="1" stroke-linecap="butt" stroke-linejoin="miter" stroke-miterlimit="10" stroke-dasharray="" stroke-dashoffset="0" font-family="none" font-weight="none" font-size="none" text-anchor="none" style="mix-blend-mode: normal"><g transform="scale(10.66667,10.66667)"><path d="M20.45508,5.41211c-0.351,0 -0.68586,0.04072 -1.00586,0.13672c-0.319,0.096 -0.59108,0.23202 -0.83008,0.41602c-0.239,0.176 -0.43022,0.3983 -0.57422,0.6543c-0.144,0.255 -0.2168,0.55172 -0.2168,0.88672c0,0.415 0.13544,0.80525 0.39844,1.15625c0.263,0.359 0.69434,0.63145 1.27734,0.81445l1.15625,0.35938c0.391,0.128 0.66264,0.26206 0.80664,0.41406c0.144,0.152 0.21484,0.33459 0.21484,0.55859c0,0.327 -0.14306,0.58281 -0.41406,0.75781c-0.271,0.176 -0.66402,0.26367 -1.16602,0.26367c-0.319,0 -0.63022,-0.0317 -0.94922,-0.0957c-0.311,-0.064 -0.60791,-0.1603 -0.87891,-0.2793c-0.08,-0.032 -0.15122,-0.06408 -0.19922,-0.08008c-0.048,-0.016 -0.09653,-0.02344 -0.14453,-0.02344c-0.12,0 -0.18359,0.07909 -0.18359,0.24609v0.4082c0,0.072 0.01683,0.15166 0.04883,0.22266c0.033,0.075 0.12105,0.15261 0.24805,0.22461c0.208,0.12 0.51897,0.22431 0.91797,0.32031c0.399,0.096 0.81352,0.14453 1.22852,0.14453c0.407,0 0.78162,-0.05792 1.14063,-0.16992c0.343,-0.104 0.63972,-0.24531 0.88672,-0.44531c0.247,-0.192 0.43803,-0.43212 0.58203,-0.70312c0.136,-0.271 0.20898,-0.58278 0.20898,-0.92578c0,-0.415 -0.12019,-0.79019 -0.36719,-1.11719c-0.247,-0.327 -0.66328,-0.58263 -1.23828,-0.76562l-1.13281,-0.35937c-0.423,-0.136 -0.71695,-0.28745 -0.87695,-0.43945c-0.16,-0.152 -0.24023,-0.34241 -0.24023,-0.56641c0,-0.327 0.128,-0.55798 0.375,-0.70898c0.247,-0.152 0.6075,-0.22461 1.0625,-0.22461c0.567,0 1.0782,0.1055 1.5332,0.3125c0.136,0.064 0.23873,0.0957 0.30273,0.0957c0.12,0 0.18359,-0.08886 0.18359,-0.25586v-0.37695c0,-0.112 -0.02427,-0.19872 -0.07227,-0.26172c-0.048,-0.072 -0.12728,-0.13717 -0.23828,-0.20117c-0.08,-0.048 -0.19098,-0.09653 -0.33398,-0.14453c-0.144,-0.048 -0.29508,-0.08695 -0.45508,-0.12695c-0.168,-0.032 -0.33553,-0.06389 -0.51953,-0.08789c-0.176,-0.024 -0.35916,-0.0332 -0.53516,-0.0332zM3.99414,5.42969c-0.439,0 -0.85509,0.04834 -1.24609,0.15234c-0.392,0.095 -0.72686,0.21537 -1.00586,0.35938c-0.112,0.056 -0.18266,0.11102 -0.22266,0.16602c-0.04,0.056 -0.05664,0.15325 -0.05664,0.28125v0.39063c0,0.168 0.05597,0.24609 0.16797,0.24609c0.032,0 0.07291,-0.00744 0.12891,-0.02344c0.055,-0.016 0.14934,-0.04752 0.27734,-0.10352c0.279,-0.112 0.56828,-0.19853 0.86328,-0.26953c0.295,-0.072 0.58233,-0.10547 0.86133,-0.10547c0.615,0 1.04578,0.12019 1.30078,0.36719c0.247,0.247 0.375,0.67034 0.375,1.27734v0.58398c-0.319,-0.072 -0.62197,-0.13773 -0.91797,-0.17773c-0.295,-0.04 -0.5747,-0.0625 -0.8457,-0.0625c-0.822,0 -1.46808,0.20805 -1.95508,0.62305c-0.486,0.415 -0.72656,0.96458 -0.72656,1.64258c0,0.639 0.19884,1.1492 0.58984,1.5332c0.391,0.383 0.92766,0.57617 1.59766,0.57617c0.942,0 1.7227,-0.36852 2.3457,-1.10352c0.088,0.184 0.16905,0.33666 0.24805,0.47266c0.08,0.128 0.17611,0.255 0.28711,0.375c0.08,0.072 0.15928,0.11133 0.23828,0.11133c0.064,0 0.13698,-0.02427 0.20898,-0.07227l0.50195,-0.33398c0.104,-0.08 0.15234,-0.16124 0.15234,-0.24024c0,-0.056 -0.01664,-0.11959 -0.05664,-0.18359c-0.112,-0.208 -0.19091,-0.39822 -0.25391,-0.57422c-0.056,-0.176 -0.08789,-0.41594 -0.08789,-0.71094h-0.01758v-2.58789c0,-0.878 -0.22211,-1.53189 -0.66211,-1.96289c-0.446,-0.43 -1.13984,-0.64648 -2.08984,-0.64648zM7.70508,5.62109c-0.128,0 -0.19141,0.07317 -0.19141,0.20117c0,0.056 0.02427,0.15936 0.07227,0.31836l1.875,6.16992c0.048,0.152 0.10397,0.26255 0.16797,0.31055c0.064,0.056 0.15973,0.08008 0.30273,0.08008h0.68555c0.144,0 0.25631,-0.02408 0.32031,-0.08008c0.064,-0.056 0.11234,-0.15936 0.15234,-0.31836l1.22851,-5.14062l1.23633,5.14844c0.032,0.16 0.08834,0.26431 0.15234,0.32031c0.064,0.056 0.16736,0.08008 0.31836,0.08008h0.6875c0.136,0 0.23873,-0.03208 0.30273,-0.08008c0.064,-0.048 0.11997,-0.1535 0.16797,-0.3125l1.92383,-6.16992c0.032,-0.088 0.04669,-0.15122 0.05469,-0.19922c0.008,-0.048 0.01758,-0.08891 0.01758,-0.12891c0,-0.136 -0.07317,-0.19922 -0.20117,-0.19922h-0.74219c-0.144,0 -0.24655,0.03208 -0.31055,0.08008c-0.056,0.048 -0.11216,0.15155 -0.16016,0.31055l-1.38086,5.34766l-1.26172,-5.34766c-0.032,-0.152 -0.08639,-0.26255 -0.15039,-0.31055c-0.064,-0.056 -0.16931,-0.08008 -0.32031,-0.08008h-0.63867c-0.144,0 -0.25436,0.03208 -0.31836,0.08008c-0.064,0.048 -0.11234,0.15155 -0.15234,0.31055l-1.24219,5.28516l-1.3418,-5.2832c-0.048,-0.152 -0.09616,-0.2645 -0.16016,-0.3125c-0.056,-0.056 -0.15955,-0.08008 -0.31055,-0.08008zM3.9707,9.46094c0.247,0 0.495,0.01683 0.75,0.04883c0.255,0.032 0.50142,0.07877 0.73242,0.13477v0.33594c0,0.271 -0.03208,0.50236 -0.08008,0.69336c-0.048,0.192 -0.14253,0.35972 -0.26953,0.51172c-0.216,0.239 -0.47081,0.41376 -0.75781,0.50976c-0.287,0.096 -0.55927,0.14453 -0.82227,0.14453c-0.367,0 -0.64689,-0.09592 -0.83789,-0.29492c-0.2,-0.192 -0.29492,-0.4707 -0.29492,-0.8457c0,-0.399 0.12763,-0.70197 0.39063,-0.91797c0.263,-0.216 0.65445,-0.32031 1.18945,-0.32031zM22.23633,14.36133c-0.84013,0.01187 -1.83203,0.19956 -2.58203,0.72656c-0.231,0.168 -0.19155,0.39138 0.06445,0.35938c0.854,-0.104 2.73922,-0.32749 3.07422,0.10351c0.335,0.423 -0.37631,2.20414 -0.69531,2.99414c-0.096,0.239 0.11313,0.33339 0.32813,0.15039c1.404,-1.181 1.76942,-3.64686 1.48242,-4.00586c-0.1435,-0.1755 -0.83175,-0.34 -1.67187,-0.32812zM0.17578,14.83789c-0.17583,0.0217 -0.25436,0.23509 -0.06836,0.40234c3.129,2.826 7.27214,4.52539 11.86914,4.52539c3.281,0 7.0947,-1.02975 9.7207,-2.96875c0.431,-0.32 0.05619,-0.80742 -0.38281,-0.60742c-2.945,1.245 -6.14459,1.85352 -9.05859,1.85352c-4.318,0 -8.49295,-1.1903 -11.87695,-3.1543c-0.07375,-0.044 -0.14452,-0.05802 -0.20312,-0.05078z"></path></g></g>
</svg>