<svg xmlns="http://www.w3.org/2000/svg" x="0px" y="0px" width="100" height="100" viewBox="0,0,256,256"
style="fill:#FFFFFF;">
<g fill="#ffffff" fill-rule="nonzero" stroke="none" stroke-width="1" stroke-linecap="butt" stroke-linejoin="miter" stroke-miterlimit="10" stroke-dasharray="" stroke-dashoffset="0" font-family="none" font-weight="none" font-size="none" text-anchor="none" style="mix-blend-mode: normal"><g transform="scale(5.12,5.12)"><path d="M15.6875,4c-1.60156,0 -2.98047,0.88672 -3.78125,2.1875l-5.09375,9.125l4.375,7.6875l6.3125,-11h23.8125l-3.21875,-5.8125c-0.80078,-1.30078 -2.17969,-2.1875 -3.78125,-2.1875zM18.59375,14l-6.28125,11l5.09375,8.90625l1.1875,2.09375h12.71875l6.375,-11l-6.375,-11zM33.6875,14l6.3125,11l-0.3125,0.5l-11.78125,20.5h6.40625c1.60156,0 2.98047,-0.88672 3.78125,-2.1875l9.3125,-16.5c0.80078,-1.39844 0.80078,-3.19922 0,-4.5l-4.90625,-8.8125zM5.59375,17.40625l-3.09375,5.40625c-0.80078,1.39844 -0.80078,3.10156 0,4.5l9.3125,16.5c0.80078,1.39844 2.17969,2.1875 3.78125,2.1875h9.90625l4.6875,-8h-12.6875l-1.6875,-3l-0.125,-0.1875l-5.6875,-9.8125zM25,20c2.80078,0 5,2.19922 5,5c0,2.80078 -2.19922,5 -5,5c-2.80078,0 -5,-2.19922 -5,-5c0,-2.80078 2.19922,-5 5,-5z"></path></g></g>
</svg>